<svg width="310" height="228" viewBox="0 0 310 228" fill="none" xmlns="http://www.w3.org/2000/svg">
<path d="M0 158C0 163.523 4.47715 168 10 168H139C144.523 168 149 163.523 149 158V138.64C149 133.117 144.523 128.64 139 128.64H86.8181C78.1834 128.64 73.6077 118.433 79.3527 111.987L146.465 36.6839C148.098 34.8522 149 32.4842 149 30.0305V9.99999C149 4.47715 144.523 0 139 0H12.8885C7.36569 0 2.88853 4.47715 2.88853 10V29.36C2.88853 34.8828 7.36568 39.36 12.8885 39.36H62.1819C70.8166 39.36 75.3923 49.5673 69.6473 56.0134L2.53463 131.316C0.902099 133.148 0 135.516 0 137.969V158Z" fill="#333333"/>
<path d="M160 137C160 131.477 164.477 127 170 127H298C303.523 127 308 131.477 308 137V158C308 163.523 303.523 168 298 168H170C164.477 168 160 163.523 160 158V137Z" fill="#333333"/>
<path d="M160 74C160 68.4772 164.477 64 170 64H298C303.523 64 308 68.4772 308 74V94C308 99.5228 303.523 104 298 104H170C164.477 104 160 99.5228 160 94V74Z" fill="#333333"/>
<path d="M160 10C160 4.47715 164.477 0 170 0H298C303.523 0 308 4.47715 308 10V31C308 36.5229 303.523 41 298 41H170C164.477 41 160 36.5229 160 31V10Z" fill="#333333"/>
<path d="M16.892 200.887H31.283C31.365 201.215 31.4333 201.611 31.488 202.076C31.5427 202.541 31.57 203.005 31.57 203.47C31.57 205.356 31.283 207.133 30.709 208.8C30.135 210.467 29.233 211.957 28.003 213.269C26.691 214.663 25.1193 215.743 23.288 216.508C21.4567 217.273 19.3657 217.656 17.015 217.656C14.883 217.656 12.874 217.273 10.988 216.508C9.102 215.743 7.462 214.677 6.068 213.31C4.674 211.943 3.567 210.331 2.747 208.472C1.927 206.586 1.517 204.536 1.517 202.322C1.517 200.108 1.927 198.072 2.747 196.213C3.567 194.327 4.674 192.701 6.068 191.334C7.462 189.967 9.102 188.901 10.988 188.136C12.874 187.371 14.883 186.988 17.015 186.988C19.393 186.988 21.5113 187.398 23.37 188.218C25.256 189.038 26.8687 190.172 28.208 191.621L24.395 195.352C23.4383 194.341 22.3723 193.575 21.197 193.056C20.0217 192.509 18.614 192.236 16.974 192.236C15.6347 192.236 14.3637 192.482 13.161 192.974C11.9583 193.439 10.906 194.108 10.004 194.983C9.102 195.858 8.37767 196.924 7.831 198.181C7.31167 199.411 7.052 200.791 7.052 202.322C7.052 203.853 7.31167 205.247 7.831 206.504C8.37767 207.734 9.102 208.786 10.004 209.661C10.9333 210.536 11.9993 211.219 13.202 211.711C14.4047 212.176 15.6893 212.408 17.056 212.408C18.614 212.408 19.926 212.189 20.992 211.752C22.0853 211.287 23.0147 210.7 23.78 209.989C24.3267 209.497 24.7913 208.882 25.174 208.144C25.584 207.379 25.8983 206.531 26.117 205.602H16.892V200.887ZM43.1144 192.892V199.698H54.8814V204.946H43.1144V211.752H56.1934V217H37.5794V187.644H56.1934V192.892H43.1144ZM62.7175 187.644H69.1545L80.9625 207.324H81.2905L80.9625 201.666V187.644H86.4565V217H80.6345L68.1705 196.213H67.8425L68.1705 201.871V217H62.7175V187.644ZM99.3164 192.892V199.698H111.083V204.946H99.3164V211.752H112.395V217H93.7814V187.644H112.395V192.892H99.3164ZM118.92 187.644H129.621C131.097 187.644 132.436 187.876 133.639 188.341C134.841 188.806 135.866 189.448 136.714 190.268C137.588 191.088 138.258 192.072 138.723 193.22C139.187 194.341 139.42 195.571 139.42 196.91C139.42 197.894 139.256 198.823 138.928 199.698C138.6 200.545 138.149 201.324 137.575 202.035C137.001 202.718 136.331 203.333 135.566 203.88C134.8 204.399 133.994 204.809 133.147 205.11L133.106 205.397L140.978 216.672V217H134.623L127.038 205.971H124.455V217H118.92V187.644ZM129.58 200.887C130.837 200.887 131.862 200.504 132.655 199.739C133.475 198.974 133.885 198.003 133.885 196.828C133.885 196.309 133.789 195.803 133.598 195.311C133.434 194.819 133.174 194.382 132.819 193.999C132.463 193.616 132.012 193.316 131.466 193.097C130.946 192.851 130.345 192.728 129.662 192.728H124.455V200.887H129.58ZM154.348 187.644H160.662L171.691 217H165.582L163.163 209.989H151.847L149.428 217H143.319L154.348 187.644ZM161.359 204.905L158.735 197.566L157.669 193.999H157.341L156.275 197.566L153.651 204.905H161.359ZM180.112 217V192.892H171.912V187.644H193.847V192.892H185.647V217H180.112ZM199.219 187.644H204.754V217H199.219V187.644ZM225.603 217.656C223.417 217.656 221.38 217.26 219.494 216.467C217.636 215.674 216.023 214.595 214.656 213.228C213.29 211.834 212.21 210.208 211.417 208.349C210.652 206.463 210.269 204.454 210.269 202.322C210.269 200.19 210.652 198.195 211.417 196.336C212.21 194.45 213.29 192.824 214.656 191.457C216.023 190.063 217.636 188.97 219.494 188.177C221.38 187.384 223.417 186.988 225.603 186.988C227.79 186.988 229.813 187.384 231.671 188.177C233.557 188.97 235.184 190.063 236.55 191.457C237.917 192.824 238.983 194.45 239.748 196.336C240.541 198.195 240.937 200.19 240.937 202.322C240.937 204.454 240.541 206.463 239.748 208.349C238.983 210.208 237.917 211.834 236.55 213.228C235.184 214.595 233.557 215.674 231.671 216.467C229.813 217.26 227.79 217.656 225.603 217.656ZM225.603 212.408C226.97 212.408 228.241 212.162 229.416 211.67C230.619 211.178 231.658 210.495 232.532 209.62C233.434 208.745 234.131 207.693 234.623 206.463C235.143 205.206 235.402 203.825 235.402 202.322C235.402 200.819 235.143 199.452 234.623 198.222C234.131 196.965 233.434 195.899 232.532 195.024C231.658 194.149 230.619 193.466 229.416 192.974C228.241 192.482 226.97 192.236 225.603 192.236C224.237 192.236 222.952 192.482 221.749 192.974C220.574 193.466 219.535 194.149 218.633 195.024C217.759 195.899 217.062 196.965 216.542 198.222C216.05 199.452 215.804 200.819 215.804 202.322C215.804 203.825 216.05 205.206 216.542 206.463C217.062 207.693 217.759 208.745 218.633 209.62C219.535 210.495 220.574 211.178 221.749 211.67C222.952 212.162 224.237 212.408 225.603 212.408ZM246.852 187.644H253.289L265.097 207.324H265.425L265.097 201.666V187.644H270.591V217H264.769L252.305 196.213H251.977L252.305 201.871V217H246.852V187.644ZM286.72 211.424L301.603 192.892H287.376V187.644H308.04V193.22L293.321 211.752H308.204V217H286.72V211.424Z" fill="#333333"/>
</svg>
